<svg width="24" height="24" viewBox="0 0 24 24" fill="none" xmlns="http://www.w3.org/2000/svg">
  <g clip-path="url(#clip0_1_51)">
    <path
      d="M11.8205 3.29412C9.79379 3.29412 7.81262 3.90131 6.12749 5.0389C4.44237 6.1765 3.12897 7.79341 2.3534 9.68516C1.57782 11.5769 1.37489 13.6585 1.77028 15.6668C2.16566 17.6751 3.1416 19.5198 4.57469 20.9677C6.00777 22.4156 7.83362 23.4016 9.82136 23.8011C11.8091 24.2005 13.8695 23.9955 15.7419 23.2119C17.6143 22.4283 19.2147 21.1014 20.3406 19.3989C21.4666 17.6963 22.0676 15.6947 22.0676 13.6471C22.0645 10.9022 20.9839 8.27074 19.0629 6.32986C17.1418 4.38898 14.5372 3.29723 11.8205 3.29412ZM15.7726 8.32283C15.8591 8.23541 15.9618 8.16607 16.0749 8.11876C16.1879 8.07146 16.3091 8.04711 16.4314 8.04711C16.5538 8.04711 16.6749 8.07146 16.788 8.11876C16.901 8.16607 17.0038 8.23541 17.0903 8.32283C17.1768 8.41024 17.2454 8.51402 17.2922 8.62823C17.3391 8.74244 17.3632 8.86485 17.3632 8.98847C17.3632 9.1121 17.3391 9.23451 17.2922 9.34872C17.2454 9.46293 17.1768 9.56671 17.0903 9.65412C16.7265 10.0217 14.8191 11.3525 14.4554 10.9849C14.0916 10.6174 15.407 8.69036 15.7726 8.32283ZM4.36804 13.6471C4.36804 13.3974 4.46619 13.1581 4.64089 12.9816C4.81559 12.805 5.05253 12.7059 5.2996 12.7059C5.81428 12.7059 8.09426 13.1271 8.09426 13.6471C8.09426 14.1671 5.81428 14.5882 5.2996 14.5882C5.05253 14.5882 4.81559 14.4891 4.64089 14.3126C4.46619 14.1361 4.36804 13.8967 4.36804 13.6471ZM7.86836 18.9713C7.78184 19.0587 7.67912 19.1281 7.56608 19.1754C7.45303 19.2227 7.33187 19.247 7.20951 19.247C7.08716 19.247 6.966 19.2227 6.85295 19.1754C6.73991 19.1281 6.63719 19.0587 6.55067 18.9713C6.46415 18.8839 6.39552 18.7801 6.3487 18.6659C6.30187 18.5517 6.27777 18.4293 6.27777 18.3057C6.27777 18.182 6.30187 18.0596 6.3487 17.9454C6.39552 17.8312 6.46415 17.7274 6.55067 17.64C6.91444 17.2725 8.8218 15.9417 9.18557 16.3092C9.54934 16.6767 8.23399 18.6038 7.86836 18.9713ZM9.18557 10.9849C8.8218 11.3525 6.91444 10.0217 6.55067 9.65412C6.37594 9.47758 6.27777 9.23814 6.27777 8.98847C6.27777 8.73881 6.37594 8.49937 6.55067 8.32283C6.72541 8.14629 6.9624 8.04711 7.20951 8.04711C7.45663 8.04711 7.69362 8.14629 7.86836 8.32283C8.23399 8.69036 9.54934 10.6174 9.18557 10.9849ZM11.8205 21.1765C11.5734 21.1765 11.3365 21.0773 11.1618 20.9008C10.9871 20.7243 10.8889 20.4849 10.8889 20.2353C10.8889 19.7177 11.3058 17.4118 11.8205 17.4118C12.3352 17.4118 12.752 19.7177 12.752 20.2353C12.752 20.4849 12.6539 20.7243 12.4792 20.9008C12.3045 21.0773 12.0675 21.1765 11.8205 21.1765ZM11.8205 9.88236C11.3058 9.88236 10.8889 7.57882 10.8889 7.05882C10.8889 6.80921 10.9871 6.56981 11.1618 6.39331C11.3365 6.2168 11.5734 6.11765 11.8205 6.11765C12.0675 6.11765 12.3045 6.2168 12.4792 6.39331C12.6539 6.56981 12.752 6.80921 12.752 7.05882C12.752 7.57882 12.3352 9.88236 11.8205 9.88236ZM17.0903 18.9713C17.0038 19.0587 16.9011 19.1281 16.788 19.1754C16.675 19.2227 16.5538 19.2471 16.4314 19.2471C16.3091 19.2471 16.1879 19.2227 16.0749 19.1754C15.9618 19.1281 15.8591 19.0587 15.7726 18.9713C15.4088 18.6038 14.0916 16.6767 14.4554 16.3092C14.8191 15.9417 16.7265 17.2725 17.0903 17.64C17.1768 17.7274 17.2455 17.8312 17.2923 17.9454C17.3391 18.0596 17.3633 18.182 17.3633 18.3057C17.3633 18.4293 17.3391 18.5517 17.2923 18.6659C17.2455 18.7801 17.1768 18.8839 17.0903 18.9713ZM18.3413 14.5882C17.829 14.5882 15.5467 14.1671 15.5467 13.6471C15.5467 13.1271 17.829 12.7059 18.3413 12.7059C18.5884 12.7059 18.8254 12.805 19.0001 12.9816C19.1748 13.1581 19.2729 13.3974 19.2729 13.6471C19.2729 13.8967 19.1748 14.1361 19.0001 14.3126C18.8254 14.4891 18.5884 14.5882 18.3413 14.5882Z"
      fill="currentColor" />
    <path
      d="M21.4836 7.09959C21.2452 7.09959 21.0067 7.00799 20.8254 6.82353L18.3413 4.31385C17.9774 3.94618 17.9774 3.35013 18.3413 2.98247C18.7053 2.6148 19.2952 2.6148 19.6591 2.98247L22.1431 5.49214C22.507 5.85981 22.507 6.45586 22.1431 6.82353C21.9618 7.00673 21.7221 7.09959 21.4836 7.09959Z"
      fill="currentColor" />
    <path
      d="M12.856 2.31234V3.82797C13.0237 3.8462 13.1902 3.86865 13.3553 3.89523H10.2116C10.3765 3.86867 10.5427 3.84622 10.7101 3.82797V2.31234H8.5642C7.97193 2.31234 7.49125 1.82361 7.49125 1.22143C7.49125 0.619248 7.97193 0.130521 8.5642 0.130521H15.0019C15.5942 0.130521 16.0749 0.619248 16.0749 1.22143C16.0749 1.82361 15.5942 2.31234 15.0019 2.31234H12.856Z"
      fill="currentColor" />
  </g>
  <defs>
    <clipPath id="clip0_1_51">
      <rect width="24" height="24" fill="none" />
    </clipPath>
  </defs>
</svg>
